<svg width="381" height="240.67951" xmlns="http://www.w3.org/2000/svg">
 <g>
  <title>background</title>
  <rect x="-1" y="-1" width="383" height="242.67951" id="canvas_background" fill="none"/>
 </g>

 <g>
  <title>Layer 1</title>
  <path d="m382,186.49538l-381,0a1,1 0 0 1 0,-2l381,0a1,1 0 0 1 0,2z" fill="#3f3d56" id="svg_57"/>
  <circle cx="199.05906" cy="28.49537" r="27" fill="#2f2e41" id="svg_58"/>
  <polygon points="173.40499877929688,201.82135009765625 172.69000244140625,189.5833740234375 219.55599975585938,180.99835205078125 220.61199951171875,199.06234741210938 173.40499877929688,201.82135009765625 " fill="#ffb8b8" id="svg_59"/>
  <path d="m1183.96205,308.01639l23.64387,0a0,0 0 0 1 0,0l0,14.88687a0,0 0 0 1 0,0l-38.53073,0a0,0 0 0 1 0,0l0,0a14.88686,14.88686 0 0 1 14.88686,-14.88687z" transform="rotate(86.65461730957031 747.3403930664062,-290.1468505859375) " fill="#2f2e41" id="svg_60"/>
  <polygon points="193.78900146484375,201.7093505859375 186.00399780273438,211.18035888671875 145.76800537109375,185.66134643554688 157.2570037841797,171.683349609375 193.78900146484375,201.7093505859375 " fill="#ffb8b8" id="svg_61"/>
  <path d="m-142.93006,796.6435l23.64386,0a0,0 0 0 1 0,0l0,14.88687a0,0 0 0 1 0,0l-38.53072,0a0,0 0 0 1 0,0l0,0a14.88686,14.88686 0 0 1 14.88686,-14.88687z" transform="rotate(-50.58211898803711 -597.3195800781249,166.8567199707032) " fill="#2f2e41" id="svg_62"/>
  <path d="m171.38663,157.66537l-5.31975,25.07884a4,4 0 0 0 3.84843,4.8295l52.29785,0.84351a4,4 0 0 0 4.00364,-4.69462l-4.57453,-25.92236a4,4 0 0 0 -3.93914,-3.30486l-42.40356,0a4,4 0 0 0 -3.91294,3.16999z" fill="#2f2e41" id="svg_63"/>
  <path d="m180.05906,166.49538s-51,-32 -61,-15c-5,8.5 -2.5,16.75 1.25,22.875a34.63053,34.63053 0 0 0 14.4025,12.89112l41.3475,20.23388l15,-16l-10,-9l-1,-16z" fill="#2f2e41" id="svg_64"/>
  <path d="m206.05906,161.49538s66,-19 53,17s-62,22 -62,22l-5,-15l17,-12l-3,-12z" fill="#2f2e41" id="svg_65"/>
  <circle cx="199.39764" cy="34.66072" r="24.56103" fill="#ffb8b8" id="svg_66"/>
  <path d="m200.68454,165.46414a131.99386,131.99386 0 0 1 -30.25708,-3.98633l-0.29248,-0.08007l-13.70556,-63.04493a23.2247,23.2247 0 0 1 14.93286,-26.94335a80.45969,80.45969 0 0 1 51.29956,-1.02442l0.00024,0a23.46956,23.46956 0 0 1 15.635,27.76465l-15.30835,63.19531l-0.21557,0.10254c-6.36181,3.01366 -14.31716,4.0166 -22.08862,4.0166z" fill="#ccc" id="svg_67"/>
  <path d="m182.27438,170.36165a10.05573,10.05573 0 0 1 14.47536,-5.31221l26.98651,-23.42452l2.44163,18.40848l-26.00117,19.4221a10.11027,10.11027 0 0 1 -17.90233,-9.09385z" fill="#ffb8b8" id="svg_68"/>
  <path d="m208.01218,175.47097a4.53353,4.53353 0 0 1 -1.29639,-0.19043a4.45263,4.45263 0 0 1 -2.9624,-2.81641l-3.25732,-9.22851a4.472,4.472 0 0 1 1.30224,-4.90235l36.7688,-22.07422l-14.49411,-64.66113l0.36865,-0.08887c0.14991,-0.0371 15.00025,-3.417 21.0857,12.81055c4.26147,11.36524 20.03149,36.07715 18.91894,52.77637a14.88461,14.88461 0 0 1 -12.322,13.72754l-41.38818,23.71289a4.456,4.456 0 0 1 -2.72393,0.93457z" fill="#ccc" id="svg_69"/>
  <path d="m212.13609,168.16807a10.05575,10.05575 0 0 0 -14.47536,-5.31221l-26.9865,-23.42452l-2.44163,18.40848l26.00117,19.4221a10.11027,10.11027 0 0 0 17.90232,-9.09385z" fill="#ffb8b8" id="svg_70"/>
  <path d="m189.10593,175.47097a4.456,4.456 0 0 1 -2.72388,-0.93457l-44.38818,-21.71289a14.88461,14.88461 0 0 1 -12.322,-13.72754c-1.11255,-16.69922 17.65747,-43.41113 21.91894,-54.77637c6.085,-16.22754 20.93555,-12.84863 21.0857,-12.81055l0.36865,0.08887l-17.49416,66.66113l39.7688,20.07422a4.472,4.472 0 0 1 1.30224,4.90235l-3.25732,9.22851a4.45263,4.45263 0 0 1 -2.9624,2.81641a4.5348,4.5348 0 0 1 -1.29639,0.19043z" fill="#ccc" id="svg_71"/>
  <path d="m242.05908,185.4953l-89,0a7.00818,7.00818 0 0 1 -7,-7l0,-49a7.00818,7.00818 0 0 1 7,-7l89,0a7.00817,7.00817 0 0 1 7,7l0,49a7.00818,7.00818 0 0 1 -7,7z" fill="#006d77" id="svg_72"/>
  <circle cx="197.55906" cy="153.99537" r="6" fill="#fff" id="svg_73"/>
  <path d="m174.59061,33.66107c-1.45566,-3.6923 0.93266,-8.09242 4.47568,-9.881s7.81846,-1.44843 11.60824,-0.26964c3.18484,0.99063 6.16976,2.52588 9.27688,3.73845a20.76152,20.76152 0 0 0 9.75287,1.73691c3.31428,-0.37431 6.61291,-2.23278 7.96907,-5.28c1.40574,-3.15859 0.44963,-7.01316 -1.71516,-9.7088a18.79922,18.79922 0 0 0 -8.61171,-5.5348c-7.3075,-2.57443 -15.74829,-2.64969 -22.53234,1.0925s-11.39446,11.7102 -9.99219,19.33" fill="#2f2e41" id="svg_74"/>
  <path d="m32.66247,174.81384a122.0417,122.0417 0 0 1 10.10053,-38.51722q2.27961,-5.09249 5.01813,-9.96076a0.7438,0.7438 0 0 0 -1.28354,-0.75026a123.72825,123.72825 0 0 0 -13.7678,37.98231q-1.03366,5.58356 -1.55378,11.24593c-0.08811,0.95214 1.39893,0.94613 1.48648,0l-0.00002,0z" fill="#e6e6e6" id="svg_75"/>
  <circle cx="51.38142" cy="119.30544" r="9.4144" fill="#006d77" id="svg_76"/>
  <path d="m33.6255,175.06388a79.1741,79.1741 0 0 1 6.55267,-24.98791q1.47889,-3.30373 3.25549,-6.462a0.48254,0.48254 0 0 0 -0.83269,-0.48673a80.26852,80.26852 0 0 0 -8.93181,24.64089q-0.67059,3.62232 -1.008,7.29576c-0.05716,0.6177 0.90755,0.6138 0.96435,0l-0.00001,-0.00001z" fill="#e6e6e6" id="svg_77"/>
  <circle cx="45.76935" cy="139.05299" r="6.10756" fill="#006d77" id="svg_78"/>
  <path d="m32.40835,174.48734a79.174,79.174 0 0 1 -10.20241,-23.73277q-0.86592,-3.51453 -1.40763,-7.09749a0.48253,0.48253 0 0 0 -0.95592,0.12838a80.26809,80.26809 0 0 0 8.11306,24.92246q1.69919,3.26857 3.69252,6.37255c0.33485,0.5222 1.09311,-0.07422 0.76038,-0.59313z" fill="#e6e6e6" id="svg_79"/>
  <circle cx="19.8347" cy="138.62425" r="6.10756" fill="#006d77" id="svg_80"/>
  <path d="m13.65857,179.89105l0,-12a4.50508,4.50508 0 0 1 4.5,-4.5l28,0a4.50508,4.50508 0 0 1 4.5,4.5l0,12a4.50508,4.50508 0 0 1 -4.5,4.5l-28,0a4.50508,4.50508 0 0 1 -4.5,-4.5z" fill="#f2f2f2" id="svg_81"/>
  <path d="m314.40885,193.89599c0,6.57707 -5.33178,9.56657 -11.90885,9.56657s-11.90885,-2.9895 -11.90885,-9.56657s2.64641,-14.25113 11.90885,-11.60471c9.26244,-3.96962 11.90885,5.02763 11.90885,11.60471z" fill="#ff6584" id="svg_82"/>
  <path d="m301.91992,185.37225a1.90366,1.90366 0 0 1 -1.89111,-1.65918c-0.39429,-3.28125 -2.56763,-9.708 -3.48364,-12.31836l-0.00025,-0.001a1.703,1.703 0 0 1 0.22022,-1.5664a1.78652,1.78652 0 0 1 2.66333,-0.19239a1.70477,1.70477 0 0 1 0.46826,1.27637c-0.17944,3.35059 2.26294,8.76465 3.73486,11.69434a1.90795,1.90795 0 0 1 -1.50976,2.75586a1.76339,1.76339 0 0 1 -0.20191,0.01076z" fill="#3f3d56" id="svg_83"/>
  <path d="m310.732,177.98086c4.13393,-3.38342 0.89056,-10.30763 -4.28341,-8.9784a4.17809,4.17809 0 0 0 -1.8637,0.99416c-3.17381,2.99811 -3.66567,10.66906 -3.66567,10.66906s5.60455,0.75938 9.81278,-2.68482z" fill="#3f3d56" id="svg_84"/>
 </g>
</svg>